<svg xmlns="http://www.w3.org/2000/svg" width="69" height="25" viewBox="0 0 69 25">
    <defs>
        <linearGradient id="a" x1="100.006%" x2=".007%" y1="49.962%" y2="49.962%">
            <stop offset="0%" stop-color="#00FFEC"/>
            <stop offset="100%" stop-color="#1B7B95"/>
        </linearGradient>
    </defs>
    <path fill="url(#a)" fill-rule="nonzero" d="M67.446 18.005c-.548-.261-1.794-.86-2.123-1.056-.328-.21-.561-.3-1.465-.887s-1.972-1.239-3.52-1.551c-1.547-.326-6.176-1.056-9.148-1.109l-28.06-.508-8.723-2.53L5.45.066 1.657 0l3.437 12.764s-2.369-.548-2.615-.574c-.247-.026-1.74-.04-2.068-.04-.329 0-.411.066-.411.144 0 .078.096.13.247.235.15.104 1.985 1.121 2.287 1.304.3.182.356.17.356.17l.424 1.655s6.6 2.242 11.038 3.572c4.45 1.33 8.614 2.073 10.107 2.269 1.492.195 3.642.195 3.642.195l1.096.026v.313s.137-.13.397-.195v.534c-.507.104-.89.548-.89 1.07 0 .599.52 1.094 1.15 1.094.63 0 1.15-.495 1.15-1.095 0-.508-.37-.926-.862-1.056v-.534c.26.065.383.208.383.208v-.313l3.56.065 1.398.47-.014.573s.918.17 1.561.248c.644.078 1.123.117 2.328.144 1.205.026 1.808-.014 2.082-.053.287-.052.685-.182.822-.365.137-.182.15-.286.15-.39v-.548h.329s13.434.039 16.776.078l-.014.9c-.41.078-.712.404-.726.808-.013.47.384.873.89.873.493.013.918-.365.918-.847.014-.404-.288-.73-.685-.835v-.365l2.493.04s.26 0 .493-.066c.232-.065.424-.221.424-.221l.014-.587c1.068-.183 2.068-.43 2.821-.704 1.164-.417 2.657-1.017 2.67-1.682.014-.665-.821-1.004-1.369-1.277zm-46.055-1.122c0 .235-.205.418-.452.418a.433.433 0 0 1-.438-.43l.014-.979c0-.234.205-.417.451-.417.247 0 .439.196.439.43l-.014.978zm1.287.026c0 .235-.205.418-.452.418a.433.433 0 0 1-.438-.43l.014-.978c0-.235.205-.418.452-.418.246 0 .438.196.438.43l-.014.978zm1.288.026c0 .235-.206.418-.452.418a.433.433 0 0 1-.439-.43l.014-.978c0-.235.206-.418.452-.418.247 0 .438.196.438.43l-.013.978zm1.287.027c0 .234-.206.417-.452.417a.433.433 0 0 1-.438-.43l.013-.978c0-.235.206-.417.452-.417.247 0 .439.195.439.43l-.014.978zm1.287.013c0 .234-.205.417-.452.417a.433.433 0 0 1-.438-.43l.014-.978c0-.235.205-.417.452-.417.246 0 .438.195.438.43l-.014.978zm1.287.026c0 .234-.205.417-.451.417a.433.433 0 0 1-.439-.43l.014-.978c0-.235.205-.417.452-.417.246 0 .438.195.438.43l-.014.978zm1.288.026c0 .234-.206.417-.452.417a.433.433 0 0 1-.438-.43l.013-.978c0-.235.206-.417.452-.417.247 0 .438.195.438.43l-.013.978zm1.287.026c0 .234-.205.417-.452.417a.433.433 0 0 1-.438-.43l.014-.978c0-.235.205-.417.452-.417.246 0 .438.195.438.43l-.014.978zm1.274.026c0 .235-.206.417-.452.417a.433.433 0 0 1-.439-.43l.014-.978c0-.235.206-.417.452-.417.247 0 .438.195.438.43l-.013.978zm1.287.013c0 .235-.205.417-.452.417a.433.433 0 0 1-.438-.43l.013-.978c0-.235.206-.417.452-.417.247 0 .439.195.439.43l-.014.978zm1.287.026c0 .235-.205.417-.452.417a.433.433 0 0 1-.438-.43l.014-.978c0-.235.205-.417.452-.417.246 0 .438.196.438.43l-.014.978zm1.288.026c0 .235-.206.417-.452.417a.433.433 0 0 1-.439-.43l.014-.978c0-.234.205-.417.452-.417.246 0 .438.196.438.43l-.013.978zm1.287.026c0 .235-.206.417-.452.417a.433.433 0 0 1-.438-.43l.013-.978c0-.234.206-.417.452-.417.247 0 .439.196.439.43l-.014.978zm1.287.013c0 .235-.205.417-.452.417a.433.433 0 0 1-.438-.43l.014-.978c0-.234.205-.417.452-.417.246 0 .438.196.438.43l-.014.978zm1.287.026c0 .235-.205.417-.452.417a.433.433 0 0 1-.438-.43l.014-.978c0-.234.205-.417.452-.417.246 0 .438.196.438.43l-.014.978zm1.288.026c0 .235-.206.418-.452.418a.433.433 0 0 1-.438-.43l.013-.979c0-.234.206-.417.452-.417.247 0 .438.196.438.43l-.013.978zm1.287.026c0 .235-.205.418-.452.418a.433.433 0 0 1-.438-.43l.014-.978c0-.235.205-.418.451-.418.247 0 .439.196.439.43l-.014.978zm1.287.026c0 .235-.205.418-.452.418a.433.433 0 0 1-.438-.43l.014-.978c0-.235.205-.418.452-.418.246 0 .438.196.438.43l-.014.978zm1.288.014c0 .234-.206.417-.452.417a.433.433 0 0 1-.439-.43l.014-.978c0-.235.206-.418.452-.418.247 0 .438.196.438.43l-.013.979zm1.287.026c0 .234-.206.417-.452.417a.433.433 0 0 1-.438-.43l.013-.978c0-.235.206-.417.452-.417.247 0 .439.195.439.43l-.014.978zm1.287.026c0 .234-.205.417-.452.417a.433.433 0 0 1-.438-.43l.014-.978c0-.235.205-.417.452-.417.246 0 .438.195.438.43l-.014.978zm1.287.026c0 .234-.205.417-.451.417a.433.433 0 0 1-.439-.43l.014-.978c0-.235.205-.417.452-.417.246 0 .438.195.438.43l-.014.978zm1.288.026c0 .234-.206.417-.452.417a.433.433 0 0 1-.438-.43l.013-.978c0-.235.206-.417.452-.417.247 0 .438.195.438.43l-.013.978zm1.287.013c0 .235-.205.417-.452.417a.433.433 0 0 1-.438-.43l.014-.978c0-.235.205-.417.452-.417.246 0 .438.195.438.43l-.014.978zm1.287.026c0 .235-.205.417-.452.417a.433.433 0 0 1-.438-.43l.014-.978c0-.235.205-.417.452-.417.246 0 .438.195.438.43l-.014.978zm1.274.026c0 .235-.205.417-.452.417a.433.433 0 0 1-.438-.43l.013-.978c0-.235.206-.417.452-.417.247 0 .439.196.439.43l-.014.978zm1.287.026c0 .235-.205.417-.452.417a.433.433 0 0 1-.438-.43l.014-.978c0-.234.205-.417.452-.417.246 0 .438.196.438.43l-.014.978zm1.288.026c0 .235-.206.417-.452.417a.433.433 0 0 1-.439-.43l.014-.978c0-.234.205-.417.452-.417.246 0 .438.196.438.43l-.013.978zm4.806-.104l-.465-1.421 1.479.026.986 1.447-2-.052zm3.684-.17c-.493.17-.863.222-.863.222l-.493-.013-.972-1.434 1.068.026 1.657 1.017c.014 0 .096.013-.397.182z"/>
</svg>
