<svg xmlns="http://www.w3.org/2000/svg" width="70" height="11" viewBox="0 0 70 11">
    <defs>
        <linearGradient id="a" x1="198.823%" x2="-674.928%" y1="49.429%" y2="49.429%">
            <stop offset="0%" stop-color="#00FFEC"/>
            <stop offset="100%" stop-color="#1B7B95"/>
        </linearGradient>
        <linearGradient id="b" x1="93.634%" x2="-678.582%" y1="50.099%" y2="50.099%">
            <stop offset="0%" stop-color="#00FFEC"/>
            <stop offset="100%" stop-color="#1B7B95"/>
        </linearGradient>
        <linearGradient id="c" x1="116.952%" x2="-228.805%" y1="49.945%" y2="49.945%">
            <stop offset="0%" stop-color="#00FFEC"/>
            <stop offset="100%" stop-color="#1B7B95"/>
        </linearGradient>
        <linearGradient id="d" x1="180.299%" x2="-444.954%" y1="50.033%" y2="50.033%">
            <stop offset="0%" stop-color="#00FFEC"/>
            <stop offset="100%" stop-color="#1B7B95"/>
        </linearGradient>
        <linearGradient id="e" x1="151.389%" x2="-21.968%" y1="49.932%" y2="49.932%">
            <stop offset="0%" stop-color="#00FFEC"/>
            <stop offset="100%" stop-color="#1B7B95"/>
        </linearGradient>
        <linearGradient id="f" x1="138.715%" x2="-25.96%" y1="49.81%" y2="49.81%">
            <stop offset="0%" stop-color="#00FFEC"/>
            <stop offset="100%" stop-color="#1B7B95"/>
        </linearGradient>
        <linearGradient id="g" x1="636.123%" x2="5.08%" y1="50.19%" y2="50.19%">
            <stop offset="0%" stop-color="#00FFEC"/>
            <stop offset="100%" stop-color="#1B7B95"/>
        </linearGradient>
        <linearGradient id="h" x1="127.871%" x2="-.102%" y1="50.082%" y2="50.082%">
            <stop offset="0%" stop-color="#00FFEC"/>
            <stop offset="100%" stop-color="#1B7B95"/>
        </linearGradient>
    </defs>
    <g fill="none" fill-rule="nonzero">
        <path fill="url(#a)" d="M9.162 1.837H0c.569.505 1.036.898 1.27 1.108h8.972c-.35-.406-.715-.771-1.08-1.108z" transform="translate(48.145 7.855)"/>
        <path fill="url(#b)" d="M16.997.435c-.277-.14-.555-.267-.817-.393-.015.028-.015.056-.03.084-.13.35-.525.603-1.546 1.024-1.109.449-2.188.673-3.122.673h-1.97c.365.337.7.716 1.036 1.108h10.14s.248 0 .408-.056c.117-.028-2.1-1.43-4.1-2.44z" transform="translate(48.145 7.855)"/>
        <path fill="url(#c)" d="M23.241 5.89l-.219-.336s-4.056-1.57-8.695-2.987C9.746 1.164 3.545.127.015.098c.714.645 2.48 2.23 4.055 3.619l.088.084c.452.042.875.098 1.255.154 4.77.73 8.243 1.417 10.781 2.623a12.05 12.05 0 0 1 2.991 2.034h2.232c.905 0 1.94-.224 3.02-.66.934-.378 1.313-.616 1.416-.883a.943.943 0 0 1 .043-.112c-1.546-.715-2.655-1.066-2.655-1.066z" transform="translate(38.224 .842)"/>
        <path fill="url(#d)" d="M16.078 6.789c-2.51-1.193-5.953-1.866-10.71-2.595a13.818 13.818 0 0 0-.889-.112c.263.238.525.462.759.673 1.24 1.08 3.063 2.679 4.391 3.843H18.791a11.947 11.947 0 0 0-2.713-1.81z" transform="translate(38.224 .842)"/>
        <g>
            <path fill="url(#e)" d="M1.4 3.114c.263.294.599.63 1.007.996l.117.098 18.777.028c.058 0 5.077.056 8.564.365l-.102-.085A601.902 601.902 0 0 1 25.765.94c-3.56 0-3.706-.028-3.706-.028s-.496-.042-.481-.239c.014-.196 0-.547 0-.547h-1.43s-.759.8-1.021.8c-.175 0-7.485-.028-11.059-.028-2.013 0-5.12.112-7.951.252-.059.07-.117.182-.059.28.073.14.54.828 1.343 1.684z" transform="translate(12.11)"/>
            <path fill="url(#f)" d="M30.171 4.881c-3.472-.337-8.812-.393-8.87-.393L2.8 4.46a17.847 17.847 0 0 0 2.262 1.655c3.224 1.978 4.45 2.273 6.288 2.721 1.721.421 3.837.59 7.309.59l16.705.028c-1.313-1.15-3.006-2.637-4.187-3.661-.307-.295-.657-.603-1.007-.912z" transform="translate(12.11)"/>
        </g>
        <g>
            <path fill="url(#g)" d="M.554 2.735c.307.042.642.07.963.084 1.007.042 10.417.267 12.343.267h.409l-.117-.112a10.419 10.419 0 0 1-.817-.828c-.89-.954-1.328-1.641-1.386-1.767a.405.405 0 0 1-.015-.365C9.673.14 7.63.281 6.492.421 3.56.77.088 1.094.088 1.978c0 .168.102.35.277.547l.19.21z" transform="translate(0 1.122)"/>
            <path fill="url(#h)" d="M30.77 8.528c-3.502 0-5.632-.169-7.383-.59-1.868-.448-3.108-.743-6.361-2.748a17.802 17.802 0 0 1-2.51-1.866h-.656c-1.911 0-11.35-.224-12.343-.266l-.642-.042c1.328 1.038 4.1 2.342 6.93 3.45 2.947 1.136 10.972 3.17 16.049 3.17 1.284 0 5.952.028 25.167.028-.292-.253-.744-.645-1.27-1.108L30.77 8.528z" transform="translate(0 1.122)"/>
        </g>
    </g>
</svg>
