<svg xmlns="http://www.w3.org/2000/svg" width="55" height="17" viewBox="0 0 55 17">
    <defs>
        <linearGradient id="a" x1="100.006%" x2=".007%" y1="49.962%" y2="49.962%">
            <stop offset="0%" stop-color="#00FFEC"/>
            <stop offset="100%" stop-color="#1B7B95"/>
        </linearGradient>
    </defs>
    <path fill="url(#a)" fill-rule="nonzero" d="M54.902 9.265a14.799 14.799 0 0 0-6.057-2.848c-3.508-.727-8.458-1.402-8.458-1.402s-3.99-1.99-6.242-2.91C31.894 1.189 30.877.893 29.63.656c-1.249-.236-4.664-.871-9.71-.58-5.045.291-6.488.773-9.42 1.45-2.933.678-7.45 2.563-7.45 2.563s-1.97-.143-2.163.097c-.193.241-.096 2.71-.2 3.484C.58 8.444.06 9.845.011 10.086c-.048.24.048 2.225.338 2.66.289.435 1.634 1.55 4.18 1.742.81.057 1.622.065 2.433.022a4.22 4.22 0 0 0 3.678 2.403 4.216 4.216 0 0 0 3.813-2.18c.696.063 1.395.079 2.093.046.722-.097 3.694.02 9.66.049 10.43.046 14.473.143 14.757.24.078.027.804.03 1.79.025a4.02 4.02 0 0 0 3.213 1.525 4.022 4.022 0 0 0 3.164-1.624l1.005-.023s2.21-.143 3.216-.434c1.005-.292 1.206-.098 1.345-.484.138-.386.144-2.611.144-3.095 0-.483.253-1.55.06-1.693zM14.529 4.234a15.586 15.586 0 0 1-3.269-.918c-.144-.097.01-.421.143-.532.29-.243 1.924-.97 5.144-1.55a28.15 28.15 0 0 1 6.105-.386c.179.666.323 1.341.432 2.023.096.774.144 2.033.144 2.033s-7.354-.476-8.7-.67zm21.827 1.374s-3.897-.203-6.205-.253c-2.307-.05-4.854-.243-4.854-.243s-.432-1.402-.674-2.023c-.24-.621-.73-2.193-.73-2.193s4.327.049 7.788 1.161c2.693.866 5.335 2.709 5.335 2.709l-.66.842z"/>
</svg>
