<svg xmlns="http://www.w3.org/2000/svg" width="74" height="41" viewBox="0 0 74 41">
    <defs>
        <linearGradient id="a" x1="83.59%" x2="40.751%" y1="50%" y2="50%">
            <stop offset="0%" stop-color="#5CE0F4"/>
            <stop offset="100%" stop-color="#5CE0F4" stop-opacity="0"/>
        </linearGradient>
        <filter id="b" width="108.1%" height="119.4%" x="-4%" y="-9.7%" filterUnits="objectBoundingBox">
            <feGaussianBlur in="SourceGraphic" stdDeviation="1.13"/>
        </filter>
        <linearGradient id="c" x1="0%" x2="94.386%" y1="50%" y2="50%">
            <stop offset="0%" stop-color="#5CE0F4"/>
            <stop offset="100%" stop-color="#5CE0F4" stop-opacity="0"/>
        </linearGradient>
        <radialGradient id="d" cy="22.376%" r="294.27%" fx="50%" fy="22.376%" gradientTransform="scale(1 .32883) rotate(86.909 .259 .452)">
            <stop offset="0%" stop-color="#E3FBFF" stop-opacity=".996"/>
            <stop offset="100%" stop-color="#5CE0F4"/>
        </radialGradient>
        <filter id="e" width="237.3%" height="145.1%" x="-68.6%" y="-22.6%" filterUnits="objectBoundingBox">
            <feGaussianBlur in="SourceGraphic" stdDeviation="3.214"/>
        </filter>
        <radialGradient id="f" cy="99.817%" r="274.172%" fx="50%" fy="99.817%" gradientTransform="matrix(0 -.32883 1 0 -.498 1.163)">
            <stop offset="0%" stop-color="#5CE0F4"/>
            <stop offset="100%" stop-color="#E3FBFF" stop-opacity=".996"/>
        </radialGradient>
    </defs>
    <g fill="none" fill-rule="evenodd">
        <path fill="url(#a)" d="M3.288 28.55c.284-9.66 19.275-17.296 42.418-17.057 23.142.24 41.673 8.265 41.388 17.925-.284 9.66-19.275 17.297-42.418 17.058-23.143-.24-41.673-8.265-41.388-17.925z" filter="url(#b)" opacity=".776" transform="rotate(-3 -129.898 456.82)"/>
        <path fill="url(#c)" fill-rule="nonzero" d="M49.863 40.656c18.374 6.788 28.623-3.483 28.623-13.09 0-9.606-12.115-19.934-29.761-13.259-17.646 6.675-29.77 3.653-29.77 13.26 0 9.606 12.533 6.301 30.908 13.09z" opacity=".748" transform="rotate(177 37.626 23.35)"/>
        <path fill="url(#d)" d="M7.023 39.661c-1.24-14.046 7.024-24.59 7.024-29.952C14.047 4.347 10.902 0 7.023 0S0 4.347 0 9.709c0 5.362 8.263 44 7.023 29.952z" filter="url(#e)" transform="rotate(88 27.788 39.815)"/>
        <path fill="url(#f)" d="M7.157 38.047c-1.13-12.808 6.404-22.422 6.404-27.31 0-4.89-2.867-8.853-6.404-8.853-3.536 0-6.404 3.963-6.404 8.852 0 4.89 7.535 40.12 6.404 27.311z" transform="rotate(88 27.788 39.815)"/>
    </g>
</svg>
