<svg xmlns="http://www.w3.org/2000/svg" width="38" height="38" viewBox="0 0 38 38">
    <g fill="none" fill-rule="evenodd">
        <circle cx="19" cy="19" r="19" fill="#465362" fill-opacity=".01"/>
        <path fill="#5CE0F4" d="M12.895 23.333c-2.333 0-4.187-1.648-4.187-4.062 0-2.414 1.854-4.063 4.187-4.063 1.818 0 2.834.942 3.397 1.92l-1.46.706a2.19 2.19 0 0 0-1.937-1.142c-1.388 0-2.44 1.095-2.44 2.579 0 1.484 1.052 2.579 2.44 2.579.885 0 1.603-.495 1.937-1.143l1.46.695c-.574.978-1.58 1.931-3.397 1.931zm3.938-4.062c0-2.367 1.714-4.063 4.057-4.063 2.355 0 4.068 1.696 4.068 4.063s-1.713 4.062-4.068 4.062c-2.343 0-4.057-1.695-4.057-4.062zM19 32c-7.18 0-13-5.82-13-13S11.82 6 19 6s13 5.82 13 13-5.82 13-13 13zm4.333-12.73c0-1.39-.963-2.437-2.443-2.437s-2.432 1.047-2.432 2.438c0 1.38.951 2.437 2.432 2.437 1.48 0 2.443-1.057 2.443-2.437zm1.562 5.688h3.638v-1.08h-1.788c1.246-.835 1.754-1.462 1.754-2.196 0-.965-.787-1.599-1.879-1.599-.647 0-1.384.238-1.878.8l.66.82c.335-.324.724-.525 1.218-.525.362 0 .661.173.661.504 0 .475-.376.806-2.386 2.311v.965z"/>
    </g>
</svg>
