<svg xmlns="http://www.w3.org/2000/svg" width="38" height="38" viewBox="0 0 38 38">
    <g fill="none" fill-rule="evenodd">
        <circle cx="19" cy="19" r="19" fill="#465362" fill-opacity=".01"/>
        <path fill="#5CE0F4" fill-rule="nonzero" d="M19.727 33v2h-2.586V23h-.646v12h-2.586V14h-.646v9H11v-7.367c0-1.077.22-2.143.646-3.133l.263-.61c.233-.54.765-.89 1.354-.89h7.111c.588 0 1.12.35 1.353.89l.263.61c.426.99.646 2.056.646 3.133V23h.97v.033h.015v1.937h-1V24h-2.894v1h4.849v8h-4.849zm0-10h.647v-9h-.647v9zM19.47 7.7c0 1.49-1.173 2.7-2.618 2.7-1.447 0-2.619-1.21-2.619-2.7 0-1.491 1.172-2.7 2.619-2.7 1.445 0 2.618 1.209 2.618 2.7zM25.061 25H27v8h-1.94v-8z"/>
    </g>
</svg>
