<svg xmlns="http://www.w3.org/2000/svg" width="45" height="15" viewBox="0 0 45 15">
    <g fill="none" fill-rule="evenodd">
        <ellipse cx="7.72" cy="7.5" fill="#D8D8D8" rx="6.72" ry="6.5"/>
        <path fill="#52B9C9" fill-rule="nonzero" d="M7.72 15C3.464 15 0 11.65 0 7.5S3.464 0 7.72 0s7.72 3.35 7.72 7.5S11.976 15 7.72 15zm0-2c3.166 0 5.72-2.47 5.72-5.5S10.886 2 7.72 2 2 4.47 2 7.5 4.554 13 7.72 13zM36.72 15C32.464 15 29 11.65 29 7.5S32.464 0 36.72 0s7.72 3.35 7.72 7.5-3.464 7.5-7.72 7.5zm0-2c3.166 0 5.72-2.47 5.72-5.5S39.886 2 36.72 2 31 4.47 31 7.5s2.554 5.5 5.72 5.5z"/>
        <path stroke="#52B9C9" stroke-linecap="square" stroke-width="2" d="M15.28 7.813h14.56"/>
    </g>
</svg>
