<svg xmlns="http://www.w3.org/2000/svg" width="38" height="38" viewBox="0 0 38 38">
    <g fill="none" fill-rule="evenodd">
        <circle cx="19" cy="19" r="19" fill="#465362" fill-opacity=".01"/>
        <path fill="#5CE0F4" fill-rule="nonzero" d="M16.773 19.346c0-.843.464-1.57 1.133-1.963l7.126-4.428-4.065 7.415a2.212 2.212 0 0 1-1.97 1.23c-1.227 0-2.224-1.01-2.224-2.254zM28.325 8.499l-2.473 2.416c-1.659-1.408-3.31-2.31-6.113-2.49V5c3.363.193 6.307 1.481 8.586 3.5zm-18.678 0C11.926 6.481 14.87 5.193 18.233 5v3.424c-2.803.181-4.455 1.083-6.113 2.491L9.647 8.5zm19.978 9.552a11.003 11.003 0 0 0-2.598-6.1l2.388-2.406c2.043 2.296 3.359 5.097 3.585 8.506h-3.375zm-21.25 0H5c.226-3.409 1.542-6.21 3.585-8.506l2.388 2.406a11.003 11.003 0 0 0-2.598 6.1zm.162 1.722a11.003 11.003 0 0 0 2.598 6.1l-2.388 2.405c-2.043-2.295-3.358-5.096-3.585-8.505h3.375zm21.088 0H33c-.226 3.409-1.542 6.21-3.585 8.505l-2.388-2.405a11.003 11.003 0 0 0 2.598-6.1zm-15.655 8.25h10.652V32H13.97v-3.977zm1.122 1.136v1.705h8.41v-1.705h-8.41z"/>
    </g>
</svg>
