<?xml version="1.0" encoding="UTF-8"?>
<svg width="20px" height="20px" viewBox="0 0 20 20" version="1.1" xmlns="http://www.w3.org/2000/svg" xmlns:xlink="http://www.w3.org/1999/xlink">
    <!-- Generator: Sketch 50.2 (55047) - http://www.bohemiancoding.com/sketch -->
    <title>instagram [#167] copy</title>
    <desc>Created with Sketch.</desc>
    <defs></defs>
    <g id="Symbols" stroke="none" stroke-width="1" fill="none" fill-rule="evenodd">
        <g id="LEFT-MARGIN" transform="translate(-146.000000, -1036.000000)" fill="#2C424F">
            <g id="LEFT-MARGIN-Copy">
                <g id="SOCIAL-MEDIA-ICONS" transform="translate(30.000000, 1036.000000)">
                    <path d="M121.869652,0.122726886 C120.241769,0.19617738 118.830805,0.594199654 117.691486,1.72871202 C116.548187,2.86917983 116.155147,4.28558328 116.081514,5.89653128 C116.035742,6.902009 115.768077,14.4981797 116.544207,16.4902762 C117.067597,17.8342218 118.098457,18.8674916 119.454694,19.3925633 C120.087538,19.6387217 120.809936,19.8054742 121.869652,19.8541104 C130.730467,20.2551103 134.015089,20.036744 135.400182,16.4902762 C135.645956,15.858999 135.815113,15.1373975 135.86188,14.080306 C136.26686,5.19676644 135.796207,3.2711724 134.251908,1.72871202 C133.027016,0.50685312 131.5862,-0.3249241 121.869652,0.122726886 M121.951245,18.0674767 C120.981083,18.0238034 120.454707,17.8620138 120.103459,17.7260312 C119.219865,17.3826005 118.556174,16.721546 118.214876,15.8431178 C117.623823,14.3294421 117.819846,7.14022682 117.872583,5.9769298 C117.924325,4.83745456 118.155174,3.79624418 118.959165,2.99225904 C119.954203,1.99968479 121.239792,1.51332341 129.993144,1.90836796 C131.135448,1.95998182 132.179243,2.19025904 132.985224,2.99225904 C133.980262,3.98483328 134.473801,5.28014268 134.071806,13.9999074 C134.028024,14.9676673 133.865833,15.4927391 133.729513,15.8431178 C132.829003,18.1508529 130.757333,18.4714544 121.951245,18.0674767 M130.089663,4.689561 C130.089663,5.34664515 130.623998,5.8806501 131.283709,5.8806501 C131.943419,5.8806501 132.47875,5.34664515 132.47875,4.689561 C132.47875,4.03247685 131.943419,3.4984719 131.283709,3.4984719 C130.623998,3.4984719 130.089663,4.03247685 130.089663,4.689561 M120.862673,9.98792233 C120.862673,12.8028629 123.150266,15.0847911 125.972194,15.0847911 C128.794123,15.0847911 131.081716,12.8028629 131.081716,9.98792233 C131.081716,7.17298177 128.794123,4.89204615 125.972194,4.89204615 C123.150266,4.89204615 120.862673,7.17298177 120.862673,9.98792233 M122.655732,9.98792233 C122.655732,8.16158572 124.140329,6.67967237 125.972194,6.67967237 C127.80406,6.67967237 129.288657,8.16158572 129.288657,9.98792233 C129.288657,11.8152515 127.80406,13.2971649 125.972194,13.2971649 C124.140329,13.2971649 122.655732,11.8152515 122.655732,9.98792233" id="instagram-[#167]-copy"></path>
                </g>
            </g>
        </g>
    </g>
</svg>