<svg id="Layer_1" data-name="Layer 1" xmlns="http://www.w3.org/2000/svg" viewBox="0 0 7769.66 1017.8"><defs><style>.cls-1{fill:#fff;}</style></defs><title>HyperloopTT_Logo_White</title><path class="cls-1" d="M1087.32,1502.64H904V1273H549.76v229.62H364.64V907.23H549.76v210.93H904V907.23h183.34Z" transform="translate(-364.64 -896.55)"/><path class="cls-1" d="M2074.33,907.23,1721,1306v196.69H1535.88V1305.06L1172.76,907.23H1409.5l142.4,165.54q7.11,8,18.69,20.92t24,27.15q12.45,14.25,23.14,26.7t15.13,18.69q8.89-12.45,25.81-33.82t48.95-60.52l135.28-164.65Z" transform="translate(-364.64 -896.55)"/><path class="cls-1" d="M2864.65,1130.62q0,49.85-19.58,90.33t-57.4,69q-37.84,28.49-92.12,44.5t-123.71,16h-311.5v152.19H2077V1198.26h512.64q42.72,0,66.3-18.69t23.58-49.84q0-31.14-23.58-49.4t-66.3-18.24H2077l121.93-154.86h373.8q69.42,0,123.71,16.47t91.67,45.83q37.38,29.37,57,70.31T2864.65,1130.62Z" transform="translate(-364.64 -896.55)"/><path class="cls-1" d="M3671,1349.56l-118.37,153.08H2979.45V907.23H3669.2l-119.26,154.86H3164.57v71.2h471.7l-105.91,135.28H3164.57v81Z" transform="translate(-364.64 -896.55)"/><path class="cls-1" d="M4600.13,1502.64H4353.6L4221,1345.11H3938v157.53H3753.74V1198.26h518q42.72,0,72.09-17.8t29.37-48.95q0-34.71-26.7-52.06t-74.76-17.35h-518l120.15-154.86h382.7a619,619,0,0,1,105,9.35q54.28,9.34,98.79,33.38a212.14,212.14,0,0,1,73.42,65q28.91,40.95,28.93,105a201.66,201.66,0,0,1-10.68,65.86,180.86,180.86,0,0,1-79.66,98.34q-28.93,17.36-65.41,24.48a424,424,0,0,1,33.82,29.37q18.69,17.81,49.84,48.95Z" transform="translate(-364.64 -896.55)"/><path class="cls-1" d="M5332.6,1349.56l-119.26,153.08h-526V907.23h184.23v442.33Z" transform="translate(-364.64 -896.55)"/><path class="cls-1" d="M5831.88,897.44q217.15,0,326.19,73.87t109,233.18q0,160.2-108.58,234.07t-326.63,73.87q-218.94,0-327.08-73.87t-108.13-234.07q0-159.3,108.58-233.18T5831.88,897.44Zm0,460.13q69.42,0,117.48-5.79t77.88-22.69q29.81-16.9,43.17-46.73t13.35-77.87q0-48.06-13.35-77.87t-43.17-46.28q-29.83-16.46-77.87-22.25t-117.48-5.78q-69.42,0-117.48,5.78t-77.87,22.25q-29.83,16.48-43.17,46.28T5580,1204.49q0,48.06,13.35,77.88t43.17,46.73q29.81,16.92,77.88,22.69T5831.88,1357.57Z" transform="translate(-364.64 -896.55)"/><path class="cls-1" d="M6798.42,897.44q217.15,0,326.19,73.87t109,233.18q0,160.2-108.58,234.07t-326.63,73.87q-218.94,0-327.08-73.87t-108.13-234.07q0-159.3,108.58-233.18T6798.42,897.44Zm0,460.13q69.42,0,117.48-5.79t77.88-22.69q29.81-16.9,43.17-46.73t13.35-77.87q0-48.06-13.35-77.87t-43.17-46.28q-29.83-16.46-77.87-22.25t-117.48-5.78q-69.42,0-117.48,5.78t-77.87,22.25q-29.83,16.48-43.17,46.28t-13.35,77.88q0,48.06,13.35,77.88t43.17,46.73q29.81,16.92,77.88,22.69T6798.42,1357.57Z" transform="translate(-364.64 -896.55)"/><path class="cls-1" d="M8134.31,1130.62q0,49.85-19.58,90.33t-57.41,69q-37.84,28.49-92.12,44.5t-123.71,16H7530v152.19H7346.66V1198.26h512.64q42.72,0,66.31-18.69t23.58-49.84q0-31.14-23.58-49.4t-66.31-18.24H7346.66l121.93-154.86h373.8q69.42,0,123.71,16.47t91.67,45.83q37.38,29.37,57,70.31T8134.31,1130.62Z" transform="translate(-364.64 -896.55)"/><text x="-364.64" y="-896.55"></text><path class="cls-1" d="M425.58,1760.61h-54V1726H518.93v34.62H465.19v150.13H425.58Z" transform="translate(-364.64 -896.55)"/><path class="cls-1" d="M734.15,1844.54H705.35v66.2H666V1726h86.42c38.5,0,62,25.21,62,59.55,0,32.69-20.5,50.14-40.44,54.84l41.55,70.36H770.44Zm12.46-84.76H705.35v51h41.27c15.79,0,27.7-10,27.7-25.48S762.41,1759.78,746.62,1759.78Z" transform="translate(-364.64 -896.55)"/><path class="cls-1" d="M1083.72,1878.89h-82.54l-11.63,31.85H946.34L1017.8,1726h49.3l71.19,184.75h-42.93Zm-72-34.07h61.22l-30.47-84.76Z" transform="translate(-364.64 -896.55)"/><path class="cls-1" d="M1316.68,1786.65v124.09h-39.33V1726h40.44l85.59,119.66V1726h39.33v184.75h-37.95Z" transform="translate(-364.64 -896.55)"/><path class="cls-1" d="M1610,1854.79a81,81,0,0,0,58.72,24.93c21.61,0,32.13-10.25,32.13-20.77,0-13.85-16.07-18.56-37.39-23.54-30.19-6.92-69-15.23-69-56.51,0-30.75,26.59-55.68,70.08-55.68,29.36,0,53.74,8.86,72,25.76l-21.88,28.81c-15-13.85-34.9-20.22-52.91-20.22-17.73,0-27.15,7.76-27.15,18.83,0,12.46,15.51,16.34,36.84,21.33,30.47,6.92,69.25,16.07,69.25,57.06,0,33.79-24.1,59.28-74,59.28-35.46,0-60.94-11.91-78.11-29.36Z" transform="translate(-364.64 -896.55)"/><path class="cls-1" d="M1889.23,1726h86.42c40.16,0,62,27.14,62,59.55,0,32.13-22.16,59-62,59h-47.09v66.2h-39.33Zm81.16,33.79h-41.83v51h41.83c15.51,0,27.15-10,27.15-25.48C1997.54,1770,1985.91,1759.78,1970.39,1759.78Z" transform="translate(-364.64 -896.55)"/><path class="cls-1" d="M2271.49,1722.94c56,0,96.67,39.89,96.67,95.56s-40.72,95.56-96.67,95.56c-55.68,0-96.39-39.89-96.39-95.56S2215.81,1722.94,2271.49,1722.94Zm0,34.9c-34.07,0-56,26-56,60.66,0,34.35,21.88,60.66,56,60.66s56.23-26.31,56.23-60.66C2327.72,1783.88,2305.56,1757.84,2271.49,1757.84Z" transform="translate(-364.64 -896.55)"/><path class="cls-1" d="M2585.89,1844.54h-28.81v66.2h-39.33V1726h86.42c38.5,0,62,25.21,62,59.55,0,32.69-20.5,50.14-40.44,54.84l41.55,70.36h-45.15Zm12.46-84.76h-41.27v51h41.27c15.79,0,27.7-10,27.7-25.48S2614.14,1759.78,2598.35,1759.78Z" transform="translate(-364.64 -896.55)"/><path class="cls-1" d="M2857.62,1760.61h-54V1726H2951v34.62h-53.74v150.13h-39.61Z" transform="translate(-364.64 -896.55)"/><path class="cls-1" d="M3198.05,1878.89h-82.54l-11.63,31.85h-43.21L3132.13,1726h49.3l71.19,184.75h-42.93Zm-72-34.07h61.22l-30.47-84.76Z" transform="translate(-364.64 -896.55)"/><path class="cls-1" d="M3416.6,1760.61h-54V1726H3510v34.62h-53.74v150.13H3416.6Z" transform="translate(-364.64 -896.55)"/><path class="cls-1" d="M3657,1726h39.33v184.75H3657Z" transform="translate(-364.64 -896.55)"/><path class="cls-1" d="M3942.34,1722.94c56,0,96.67,39.89,96.67,95.56s-40.72,95.56-96.67,95.56c-55.68,0-96.39-39.89-96.39-95.56S3886.67,1722.94,3942.34,1722.94Zm0,34.9c-34.07,0-56,26-56,60.66,0,34.35,21.88,60.66,56,60.66s56.23-26.31,56.23-60.66C3998.57,1783.88,3976.41,1757.84,3942.34,1757.84Z" transform="translate(-364.64 -896.55)"/><path class="cls-1" d="M4227.93,1786.65v124.09H4188.6V1726H4229l85.59,119.66V1726H4354v184.75H4316Z" transform="translate(-364.64 -896.55)"/><path class="cls-1" d="M4747.85,1760.61h-54V1726H4841.2v34.62h-53.74v150.13h-39.61Z" transform="translate(-364.64 -896.55)"/><path class="cls-1" d="M4988.29,1726H5119v33.79h-91.41v40.16h89.47v33.79h-89.47v42.93H5119v34.07H4988.29Z" transform="translate(-364.64 -896.55)"/><path class="cls-1" d="M5262.79,1818.51c0-56.78,42.93-95.56,96.95-95.56,42.1,0,65.65,22.16,78.67,45.15l-33.79,16.62a50.6,50.6,0,0,0-44.87-26.87c-32.13,0-56.51,25.76-56.51,60.66s24.38,60.66,56.51,60.66a50.08,50.08,0,0,0,44.87-26.87l33.79,16.34c-13.3,23-36.56,45.43-78.67,45.43C5305.73,1914.07,5262.79,1875.29,5262.79,1818.51Z" transform="translate(-364.64 -896.55)"/><path class="cls-1" d="M5710.42,1833.19h-87.25v77.56h-39.33V1726h39.33v72.57h87.25V1726H5750v184.75h-39.61Z" transform="translate(-364.64 -896.55)"/><path class="cls-1" d="M5947.53,1786.65v124.09H5908.2V1726h40.44l85.59,119.66V1726h39.33v184.75h-37.95Z" transform="translate(-364.64 -896.55)"/><path class="cls-1" d="M6319.54,1722.94c56,0,96.67,39.89,96.67,95.56s-40.72,95.56-96.67,95.56c-55.68,0-96.39-39.89-96.39-95.56S6263.86,1722.94,6319.54,1722.94Zm0,34.9c-34.07,0-56,26-56,60.66,0,34.35,21.88,60.66,56,60.66s56.23-26.31,56.23-60.66C6375.77,1783.88,6353.61,1757.84,6319.54,1757.84Z" transform="translate(-364.64 -896.55)"/><path class="cls-1" d="M6565.79,1726h39.33v150.13h78.11v34.62H6565.79Z" transform="translate(-364.64 -896.55)"/><path class="cls-1" d="M6912.59,1722.94c56,0,96.67,39.89,96.67,95.56s-40.72,95.56-96.67,95.56c-55.68,0-96.39-39.89-96.39-95.56S6856.92,1722.94,6912.59,1722.94Zm0,34.9c-34.07,0-56,26-56,60.66,0,34.35,21.88,60.66,56,60.66s56.23-26.31,56.23-60.66C6968.82,1783.88,6946.67,1757.84,6912.59,1757.84Z" transform="translate(-364.64 -896.55)"/><path class="cls-1" d="M7248.32,1722.94c38.23,0,62.32,18.56,76.45,40.44l-32.69,17.73a52.42,52.42,0,0,0-43.76-23.27c-33.52,0-57.89,25.76-57.89,60.66s24.38,60.66,57.89,60.66c16.9,0,31.85-6.92,39.89-14.13V1842.6h-49.3v-33.79H7327v70.63c-18.83,21.05-45.15,34.9-78.67,34.9-54,0-98.33-37.67-98.33-95.84C7150,1760.06,7194.3,1722.94,7248.32,1722.94Z" transform="translate(-364.64 -896.55)"/><path class="cls-1" d="M7480.17,1726h39.33v184.75h-39.33Z" transform="translate(-364.64 -896.55)"/><path class="cls-1" d="M7677.94,1726h130.74v33.79h-91.41v40.16h89.47v33.79h-89.47v42.93h91.41v34.07H7677.94Z" transform="translate(-364.64 -896.55)"/><path class="cls-1" d="M7970.17,1854.79a81,81,0,0,0,58.72,24.93c21.61,0,32.13-10.25,32.13-20.77,0-13.85-16.07-18.56-37.39-23.54-30.19-6.92-69-15.23-69-56.51,0-30.75,26.59-55.68,70.08-55.68,29.36,0,53.74,8.86,72,25.76l-21.88,28.81c-15-13.85-34.9-20.22-52.91-20.22-17.73,0-27.15,7.76-27.15,18.83,0,12.46,15.51,16.34,36.84,21.33,30.47,6.92,69.25,16.07,69.25,57.06,0,33.79-24.1,59.28-74,59.28-35.46,0-60.94-11.91-78.11-29.36Z" transform="translate(-364.64 -896.55)"/></svg>