<svg xmlns="http://www.w3.org/2000/svg" width="32" height="32" viewBox="0 0 32 32">
    <g fill="#2C424F" fill-rule="nonzero">
        <path d="M8.29 31.478a8.115 8.115 0 0 1-7.51-5.034 8.19 8.19 0 0 1 1.764-8.899l1.824-1.742a1.817 1.817 0 0 1 2.462 0 1.84 1.84 0 0 1 0 2.457l-1.824 1.833a4.693 4.693 0 0 0 .188 6.412 4.633 4.633 0 0 0 6.378.188l5.288-5.316a4.67 4.67 0 0 0 1.364-3.3 4.67 4.67 0 0 0-1.364-3.3 1.837 1.837 0 0 1 .569-3.345 1.82 1.82 0 0 1 1.893.741c3.158 3.196 3.158 8.355 0 11.55l-5.288 5.317a8.149 8.149 0 0 1-5.745 2.438z"/>
        <path d="M13.468 19.763a1.673 1.673 0 0 1-1.222-.513 8.143 8.143 0 0 1-2.389-5.766c0-2.165.86-4.24 2.39-5.766l5.288-5.316a8.107 8.107 0 0 1 11.508.036c3.167 3.205 3.15 8.384-.037 11.569l-1.824 1.833a1.817 1.817 0 0 1-2.116-.345 1.84 1.84 0 0 1-.327-2.13l1.823-1.833a4.723 4.723 0 0 0 .037-6.655 4.664 4.664 0 0 0-6.62-.037l-5.289 5.317a4.73 4.73 0 0 0 0 6.618 1.84 1.84 0 0 1 0 2.457c-.317.339-.759.531-1.222.531z"/>
    </g>
</svg>
