<svg xmlns="http://www.w3.org/2000/svg" width="34" height="23" viewBox="0 0 34 23">
    <path fill="#2C424F" fill-rule="nonzero" d="M32.72 3.645A4.101 4.101 0 0 0 29.823.76C27.262.07 17 .07 17 .07S6.737.07 4.178.75A4.101 4.101 0 0 0 1.28 3.637C.6 6.192.6 11.5.6 11.5s0 5.308.69 7.855a4.101 4.101 0 0 0 2.898 2.884c2.56.681 12.822.681 12.822.681s10.263 0 12.822-.68a4.101 4.101 0 0 0 2.898-2.885c.69-2.547.69-7.855.69-7.855s-.018-5.308-.698-7.855zM13.646 16.32V6.68l8.571 4.821-8.571 4.821z"/>
</svg>
