<svg xmlns="http://www.w3.org/2000/svg" width="38" height="38" viewBox="0 0 38 38">
    <g fill="#44cbce" fill-rule="evenodd">
        <circle cx="19" cy="19" r="19" fill="#465362" fill-opacity=".01"/>
        <path fill="#5CE0F4" d="M19 25.9l-5.456 3.016a1.088 1.088 0 0 1-1.6-1.127L13 21.317l-4.521-4.634a1.088 1.088 0 0 1 .614-1.836l6.199-.947 2.723-5.802a1.088 1.088 0 0 1 1.97 0l2.723 5.802 6.199.947a1.088 1.088 0 0 1 .614 1.836L25 21.317l1.056 6.472a1.088 1.088 0 0 1-1.6 1.127L19 25.9z"/>
    </g>
</svg>
