<svg xmlns="http://www.w3.org/2000/svg" width="70" height="18" viewBox="0 0 70 18">
    <defs>
        <linearGradient id="a" x1="100.243%" x2="-.217%" y1="49.89%" y2="49.89%">
            <stop offset="0%" stop-color="#00FFEC"/>
            <stop offset="100%" stop-color="#1B7B95"/>
        </linearGradient>
    </defs>
    <path fill="url(#a)" fill-rule="nonzero" d="M.125 16.348h69.31v1.637h-1.799v-.712h-2.62v.712h-1.59v-.712h-2.622v.712h-1.59v-.712h-2.606v.712h-1.59v-.712h-2.621v.712h-1.59v-.712h-2.62v.712h-1.59v-.712h-2.608v.712H42.4v-.712h-2.62v.712h-1.59v-.712h-2.621v.712h-1.59v-.712h-2.607v.712h-1.59v-.712h-2.62v.712h-1.59v-.712H22.95v.712h-1.59v-.712h-2.607v.712h-1.59v-.712h-2.62v.712h-1.59v-.712h-2.607v.712H8.742v-.712H6.135v.712h-1.59v-.712h-2.62v.712h-1.8v-1.637zm52.16-1.994h3.319c.014.086.028.171.028.27 0 .955-.753 1.724-1.687 1.724-.935 0-1.688-.77-1.688-1.723 0-.086.014-.185.028-.27zm3.849 0h3.318c.014.086.028.171.028.27 0 .955-.753 1.724-1.687 1.724s-1.687-.77-1.687-1.723c0-.086.014-.185.028-.27zm-16.997 0h3.319c.014.086.028.171.028.27 0 .955-.753 1.724-1.687 1.724-.935 0-1.688-.77-1.688-1.723 0-.086.014-.185.028-.27zm3.849 0h3.318c.014.086.028.171.028.27 0 .955-.753 1.724-1.687 1.724s-1.687-.77-1.687-1.723c0-.086.014-.185.028-.27zm-21.124 0h3.319c.014.086.028.171.028.27 0 .955-.753 1.724-1.688 1.724-.934 0-1.687-.77-1.687-1.723 0-.086.014-.185.028-.27zm3.834 0h3.319c.014.086.028.171.028.27 0 .955-.753 1.724-1.687 1.724s-1.687-.77-1.687-1.723c0-.086.014-.185.027-.27zm-20.607 0h3.318c.014.086.028.171.028.27 0 .955-.753 1.724-1.687 1.724s-1.687-.77-1.687-1.723c0-.086.014-.185.028-.27zm3.848 0h3.319c.014.086.028.171.028.27 0 .955-.753 1.724-1.688 1.724-.934 0-1.687-.77-1.687-1.723 0-.086.014-.185.028-.27zm60.038-2.264c.627 1.239.376 1.225-.572 2.008a3.855 3.855 0 0 1-.962.555 5.452 5.452 0 0 1-2.077.399h-4.908l-.67-1.14h-7.682l-.67 1.14h-4.238l-.669-1.14h-7.682l-.67 1.14h-2.719V.128h17.68l2.496.997S59.494.698 63.426 4.4c2.704 2.749 4.099 4.984 5.06 6.779l.308.57c.07.113.125.227.18.34zm-24.247-1.381V3.503c0-.726-.585-1.324-1.296-1.324h-.934c-.712 0-1.297.598-1.297 1.324v7.206c0 .726.585 1.324 1.297 1.324h.934c.71 0 1.296-.598 1.296-1.324zm-1.296-8.245c.557 0 1.018.47 1.018 1.04v7.205c0 .57-.46 1.04-1.018 1.04h-.934c-.558 0-1.018-.47-1.018-1.04V3.503c0-.57.46-1.04 1.018-1.04h.934zM63.69 8.359c.376 0 .585-.598.334-.997-1.506-2.364-3.709-3.717-6.023-3.717h-6.428c-.223 0-.404.257-.404.556 0 2.293 1.394 4.158 3.095 4.158h9.426zM.125.129h34.202v11.747H.125V.128zm15.38 6.18v-.84c0-1.069-.851-1.937-1.897-1.937H3.932c-1.046 0-1.896.868-1.896 1.936v.84c0 1.068.85 1.937 1.896 1.937h9.676c1.046 0 1.896-.869 1.896-1.937zm16.828 0v-.84c0-1.069-.85-1.937-1.896-1.937h-9.676c-1.046 0-1.896.868-1.896 1.936v.84c0 1.068.85 1.937 1.896 1.937h9.676c1.046 0 1.896-.869 1.896-1.937zM.125 15.065v-2.748h34.202v2.748h-4.35l-.655-1.14h-7.683l-.67 1.126h-7.863l-.655-1.125H4.768l-.669 1.14H.125z"/>
</svg>
