<svg xmlns="http://www.w3.org/2000/svg" width="27" height="22" viewBox="0 0 27 22">
    <path fill="#2C424F" fill-rule="evenodd" d="M24.253 6.196c0-.24 0-.48-.016-.719A11.27 11.27 0 0 0 27 2.601c-1.01.45-2.083.745-3.18.875A5.578 5.578 0 0 0 26.254.402a11.083 11.083 0 0 1-3.518 1.349 5.534 5.534 0 0 0-7.838-.241 5.574 5.574 0 0 0-1.603 5.309A15.718 15.718 0 0 1 1.88 1.014 5.57 5.57 0 0 0 3.595 8.43a5.486 5.486 0 0 1-2.515-.694v.07a5.555 5.555 0 0 0 4.444 5.446 5.495 5.495 0 0 1-2.5.095 5.547 5.547 0 0 0 5.175 3.858A11.093 11.093 0 0 1 0 19.51 15.654 15.654 0 0 0 8.491 22c10.189.004 15.762-8.462 15.762-15.804z"/>
</svg>
